<mxfile host="Electron" agent="Mozilla/5.0 (Windows NT 10.0; Win64; x64) AppleWebKit/537.36 (KHTML, like Gecko) draw.io/26.2.2 Chrome/134.0.6998.178 Electron/35.1.2 Safari/537.36" version="26.2.2">
  <diagram name="DFD Level 2 - Lajna Management System" id="0">
    <mxGraphModel dx="827" dy="1283" grid="1" gridSize="10" guides="1" tooltips="1" connect="1" arrows="1" fold="1" page="1" pageScale="1" pageWidth="1920" pageHeight="1080" math="0" shadow="0">
      <root>
        <mxCell id="0" />
        <mxCell id="1" parent="0" />
        <mxCell id="55" value="1.0 Authenticate &amp; Authorize" style="rounded=0;whiteSpace=wrap;html=1;" parent="1" vertex="1">
          <mxGeometry x="40" y="60" width="320" height="30" as="geometry" />
        </mxCell>
        <mxCell id="56" value="1.1 Verify Email/Username/Password" style="rounded=1;whiteSpace=wrap;html=1;" parent="1" vertex="1">
          <mxGeometry x="50" y="100" width="300" height="50" as="geometry" />
        </mxCell>
        <mxCell id="57" value="1.2 Apply Lockout Policy" style="rounded=1;whiteSpace=wrap;html=1;" parent="1" vertex="1">
          <mxGeometry x="50" y="160" width="300" height="50" as="geometry" />
        </mxCell>
        <mxCell id="58" value="1.3 Issue Session" style="rounded=1;whiteSpace=wrap;html=1;" parent="1" vertex="1">
          <mxGeometry x="50" y="220" width="300" height="50" as="geometry" />
        </mxCell>
        <mxCell id="59" value="1.4 Password Reset&amp;nbsp;" style="rounded=1;whiteSpace=wrap;html=1;" parent="1" vertex="1">
          <mxGeometry x="50" y="280" width="300" height="50" as="geometry" />
        </mxCell>
        <mxCell id="60" value="3.0 Documents &amp; Visibility" style="rounded=0;whiteSpace=wrap;html=1;" parent="1" vertex="1">
          <mxGeometry x="800" y="60" width="320" height="30" as="geometry" />
        </mxCell>
        <mxCell id="61" value="3.1 Validate Upload" style="rounded=1;whiteSpace=wrap;html=1;" parent="1" vertex="1">
          <mxGeometry x="810" y="100" width="300" height="50" as="geometry" />
        </mxCell>
        <mxCell id="62" value="3.2 Assign Visibility" style="rounded=1;whiteSpace=wrap;html=1;" parent="1" vertex="1">
          <mxGeometry x="810" y="160" width="300" height="50" as="geometry" />
        </mxCell>
        <mxCell id="63" value="3.3 Store &amp; Index Document" style="rounded=1;whiteSpace=wrap;html=1;" parent="1" vertex="1">
          <mxGeometry x="810" y="220" width="300" height="50" as="geometry" />
        </mxCell>
        <mxCell id="64" value="3.4 Download &amp; Access Logging" style="rounded=1;whiteSpace=wrap;html=1;" parent="1" vertex="1">
          <mxGeometry x="810" y="280" width="300" height="50" as="geometry" />
        </mxCell>
        <mxCell id="65" value="3.5 Archive (not delete)" style="rounded=1;whiteSpace=wrap;html=1;" parent="1" vertex="1">
          <mxGeometry x="810" y="340" width="300" height="50" as="geometry" />
        </mxCell>
        <mxCell id="66" value="4.0 Announcements &amp; Email" style="rounded=0;whiteSpace=wrap;html=1;" parent="1" vertex="1">
          <mxGeometry x="1180" y="60" width="320" height="30" as="geometry" />
        </mxCell>
        <mxCell id="67" value="4.1 Validate Content" style="rounded=1;whiteSpace=wrap;html=1;" parent="1" vertex="1">
          <mxGeometry x="1190" y="100" width="300" height="50" as="geometry" />
        </mxCell>
        <mxCell id="68" value="4.2 Publish to Dashboard" style="rounded=1;whiteSpace=wrap;html=1;" parent="1" vertex="1">
          <mxGeometry x="1190" y="160" width="300" height="50" as="geometry" />
        </mxCell>
        <mxCell id="69" value="4.3 Queue Emails (opt-out)" style="rounded=1;whiteSpace=wrap;html=1;" parent="1" vertex="1">
          <mxGeometry x="1190" y="220" width="300" height="50" as="geometry" />
        </mxCell>
        <mxCell id="70" value="4.4 Auto-Expire" style="rounded=1;whiteSpace=wrap;html=1;" parent="1" vertex="1">
          <mxGeometry x="1190" y="280" width="300" height="50" as="geometry" />
        </mxCell>
        <mxCell id="71" value="5.0 Attendance Tracking" style="rounded=0;whiteSpace=wrap;html=1;" parent="1" vertex="1">
          <mxGeometry x="40" y="400" width="320" height="30" as="geometry">
            <mxRectangle x="40" y="400" width="170" height="30" as="alternateBounds" />
          </mxGeometry>
        </mxCell>
        <mxCell id="72" value="5.1 Google Form service" style="rounded=1;whiteSpace=wrap;html=1;" parent="1" vertex="1">
          <mxGeometry x="50" y="440" width="300" height="50" as="geometry" />
        </mxCell>
        <mxCell id="73" value="5.2 Mark All / Bulk Toggle" style="rounded=1;whiteSpace=wrap;html=1;" parent="1" vertex="1">
          <mxGeometry x="50" y="500" width="300" height="50" as="geometry" />
        </mxCell>
        <mxCell id="74" value="5.3 Persist Attendance" style="rounded=1;whiteSpace=wrap;html=1;" parent="1" vertex="1">
          <mxGeometry x="50" y="560" width="300" height="50" as="geometry" />
        </mxCell>
        <mxCell id="75" value="5.4 Audit Edit" style="rounded=1;whiteSpace=wrap;html=1;" parent="1" vertex="1">
          <mxGeometry x="50" y="620" width="300" height="50" as="geometry" />
        </mxCell>
        <mxCell id="76" value="5.5 Export CSV" style="rounded=1;whiteSpace=wrap;html=1;" parent="1" vertex="1">
          <mxGeometry x="50" y="680" width="300" height="50" as="geometry" />
        </mxCell>
        <mxCell id="77" value="6.0 Reporting &amp; Analytics" style="rounded=0;whiteSpace=wrap;html=1;" parent="1" vertex="1">
          <mxGeometry x="420" y="400" width="320" height="30" as="geometry" />
        </mxCell>
        <mxCell id="78" value="6.1 Ingest Data from Google form" style="rounded=1;whiteSpace=wrap;html=1;" parent="1" vertex="1">
          <mxGeometry x="430" y="440" width="300" height="50" as="geometry" />
        </mxCell>
        <mxCell id="79" value="6.2 Validate &amp; Normalize" style="rounded=1;whiteSpace=wrap;html=1;" parent="1" vertex="1">
          <mxGeometry x="430" y="500" width="300" height="50" as="geometry" />
        </mxCell>
        <mxCell id="80" value="6.3 Aggregate (count/sum/avg)" style="rounded=1;whiteSpace=wrap;html=1;" parent="1" vertex="1">
          <mxGeometry x="430" y="560" width="300" height="50" as="geometry" />
        </mxCell>
        <mxCell id="81" value="6.4 Render Visualization" style="rounded=1;whiteSpace=wrap;html=1;" parent="1" vertex="1">
          <mxGeometry x="430" y="620" width="300" height="50" as="geometry" />
        </mxCell>
        <mxCell id="82" value="6.5 Export (CSV/PDF)" style="rounded=1;whiteSpace=wrap;html=1;" parent="1" vertex="1">
          <mxGeometry x="430" y="680" width="300" height="50" as="geometry" />
        </mxCell>
        <mxCell id="83" value="8.0 Member Profiles&amp;nbsp;" style="rounded=0;whiteSpace=wrap;html=1;" parent="1" vertex="1">
          <mxGeometry x="800" y="400" width="320" height="30" as="geometry" />
        </mxCell>
        <mxCell id="84" value="8.1 Update Profile/Preferences" style="rounded=1;whiteSpace=wrap;html=1;" parent="1" vertex="1">
          <mxGeometry x="810" y="440" width="300" height="50" as="geometry" />
        </mxCell>
        <mxCell id="85" value="8.2 Complete Form" style="rounded=1;whiteSpace=wrap;html=1;" parent="1" vertex="1">
          <mxGeometry x="810" y="500" width="300" height="50" as="geometry" />
        </mxCell>
        <mxCell id="86" value="8.3 Edit Until Deadline" style="rounded=1;whiteSpace=wrap;html=1;" parent="1" vertex="1">
          <mxGeometry x="810" y="560" width="300" height="50" as="geometry" />
        </mxCell>
        <mxCell id="87" value="8.4 View Submission History" style="rounded=1;whiteSpace=wrap;html=1;" parent="1" vertex="1">
          <mxGeometry x="810" y="620" width="300" height="50" as="geometry" />
        </mxCell>
        <mxCell id="92" value="9.0 Audit &amp;amp; Backups" style="rounded=0;whiteSpace=wrap;html=1;" parent="1" vertex="1">
          <mxGeometry x="1190" y="400" width="320" height="30" as="geometry" />
        </mxCell>
        <mxCell id="93" value="9.1 Write Audit Entry" style="rounded=1;whiteSpace=wrap;html=1;" parent="1" vertex="1">
          <mxGeometry x="1200" y="440" width="300" height="50" as="geometry" />
        </mxCell>
        <mxCell id="94" value="9.2 Read Audit (admin)" style="rounded=1;whiteSpace=wrap;html=1;" parent="1" vertex="1">
          <mxGeometry x="1200" y="500" width="300" height="50" as="geometry" />
        </mxCell>
        <mxCell id="95" value="9.3 Schedule Backup" style="rounded=1;whiteSpace=wrap;html=1;" parent="1" vertex="1">
          <mxGeometry x="1200" y="560" width="300" height="50" as="geometry" />
        </mxCell>
        <mxCell id="-do-hijlvTlcFTAU-V7j-96" value="2.0 User &amp;amp; Role Management" style="rounded=0;whiteSpace=wrap;html=1;" vertex="1" parent="1">
          <mxGeometry x="420" y="60" width="320" height="30" as="geometry" />
        </mxCell>
        <mxCell id="-do-hijlvTlcFTAU-V7j-97" value="2.1 Create User" style="rounded=1;whiteSpace=wrap;html=1;" vertex="1" parent="1">
          <mxGeometry x="420" y="100" width="300" height="50" as="geometry" />
        </mxCell>
        <mxCell id="-do-hijlvTlcFTAU-V7j-98" value="2.2 Assign/Revoke Role" style="rounded=1;whiteSpace=wrap;html=1;" vertex="1" parent="1">
          <mxGeometry x="420" y="160" width="300" height="50" as="geometry" />
        </mxCell>
        <mxCell id="-do-hijlvTlcFTAU-V7j-99" value="2.3 Edit User" style="rounded=1;whiteSpace=wrap;html=1;" vertex="1" parent="1">
          <mxGeometry x="420" y="220" width="300" height="50" as="geometry" />
        </mxCell>
        <mxCell id="-do-hijlvTlcFTAU-V7j-102" value="2.4 Deactivate/Reactivate User" style="rounded=1;whiteSpace=wrap;html=1;" vertex="1" parent="1">
          <mxGeometry x="420" y="290" width="300" height="50" as="geometry" />
        </mxCell>
      </root>
    </mxGraphModel>
  </diagram>
</mxfile>
